# xmcd
#
# Track frame offsets:
#	150
#	15275
#	29213
#	43585
#	57102
#	71256
#	83838
#	96896
#	105130
#	118280
#	132037
#	141668
#	153487
#	166340
#	180879
#	195247
#	210061
#	224338
#	238202
#
# Disc length: 3371 seconds
#
# Revision: 0
# Processed by: cddbd v1.4PL0 Copyright (c) Steve Scherf et al.
# Submitted via: audiograbber 1.82.01
#
DISCID=f80d2913
DTITLE=Billie Holiday - The Essential III
DYEAR=1900
DGENRE=Oldies
TTITLE0=They Can't Take That Away From Me
TTITLE1=The Man I Love
TTITLE2=Fine And Mellow
TTITLE3=The Mood That I'm In
TTITLE4=Mean To Me
TTITLE5=I Can't Get Started
TTITLE6=Ghost Of Yesterday
TTITLE7=Swing Brother Swing
TTITLE8=Did I Remember?
TTITLE9=I'll Never Be The Same
TTITLE10=I'm Gonna Lock My Heart
TTITLE11=No Regrets
TTITLE12=A Fine Romance
TTITLE13=Who Loves You?
TTITLE14=I'll Get By (Alternate Take)
TTITLE15=Trav'lin Light
TTITLE16=Solitude
TTITLE17=Good Morning Heartache
TTITLE18=These 'n' That 'n' Those
EXTD=
EXTT0=
EXTT1=
EXTT2=
EXTT3=
EXTT4=
EXTT5=
EXTT6=
EXTT7=
EXTT8=
EXTT9=
EXTT10=
EXTT11=
EXTT12=
EXTT13=
EXTT14=
EXTT15=
EXTT16=
EXTT17=
EXTT18=
PLAYORDER=
